<svg width="141" height="24" viewBox="0 0 141 24" fill="none" xmlns="http://www.w3.org/2000/svg">
<path d="M12.5 1L15.3064 9.63729H24.3882L17.0409 14.9754L19.8473 23.6127L12.5 18.2746L5.15268 23.6127L7.9591 14.9754L0.611786 9.63729H9.69357L12.5 1Z" fill="#AC58F5"/>
<path d="M41.5 1L44.3064 9.63729H53.3882L46.0409 14.9754L48.8473 23.6127L41.5 18.2746L34.1527 23.6127L36.9591 14.9754L29.6118 9.63729H38.6936L41.5 1Z" fill="#AC58F5"/>
<path d="M70.5 1L73.3064 9.63729H82.3882L75.0409 14.9754L77.8473 23.6127L70.5 18.2746L63.1527 23.6127L65.9591 14.9754L58.6118 9.63729H67.6936L70.5 1Z" fill="#AC58F5"/>
<path d="M99.5 0L102.306 8.63729H111.388L104.041 13.9754L106.847 22.6127L99.5 17.2746L92.1527 22.6127L94.9591 13.9754L87.6118 8.63729H96.6936L99.5 0Z" fill="#AC58F5"/>
<path d="M128.5 1L131.306 9.63729H140.388L133.041 14.9754L135.847 23.6127L128.5 18.2746L121.153 23.6127L123.959 14.9754L116.612 9.63729H125.694L128.5 1Z" fill="#D9D9D9"/>
</svg>
