<svg width="132" height="24" viewBox="0 0 132 24" fill="none" xmlns="http://www.w3.org/2000/svg">
<path d="M12.5 1L15.3064 9.63729H24.3882L17.0409 14.9754L19.8473 23.6127L12.5 18.2746L5.15271 23.6127L7.95913 14.9754L0.611816 9.63729H9.6936L12.5 1Z" fill="#AC58F5"/>
<path d="M41.5 0L44.3064 8.63729H53.3882L46.0409 13.9754L48.8473 22.6127L41.5 17.2746L34.1527 22.6127L36.9591 13.9754L29.6118 8.63729H38.6936L41.5 0Z" fill="#AC58F5"/>
<path d="M68.5 0L71.3064 8.63729H80.3882L73.0409 13.9754L75.8473 22.6127L68.5 17.2746L61.1527 22.6127L63.9591 13.9754L56.6118 8.63729H65.6936L68.5 0Z" fill="#AC58F5"/>
<path d="M93.5 0L96.3064 8.63729H105.388L98.0409 13.9754L100.847 22.6127L93.5 17.2746L86.1527 22.6127L88.9591 13.9754L81.6118 8.63729H90.6936L93.5 0Z" fill="#AC58F5"/>
<path d="M119.888 0L122.695 8.63729H131.776L124.429 13.9754L127.236 22.6127L119.888 17.2746L112.541 22.6127L115.347 13.9754L108 8.63729H117.082L119.888 0Z" fill="#AC58F5"/>
</svg>
